<svg width="15" height="14" viewBox="0 0 15 14" fill="none" xmlns="http://www.w3.org/2000/svg">
<path fill-rule="evenodd" clip-rule="evenodd" d="M14.2172 11.8964C14.3479 12.1656 14.3815 12.4455 14.321 12.7613C14.2597 13.0815 14.1393 13.2823 13.8637 13.5245C13.4888 13.8537 13.0073 13.9484 12.532 13.7861L12.2755 13.6986L0.760194 2.18327L0.672659 1.9268C0.576495 1.64511 0.57525 1.32454 0.669074 1.01627C0.72027 0.848093 0.776024 0.77016 1.01864 0.527548C1.26125 0.284936 1.33918 0.229181 1.50735 0.177985C1.81563 0.0841607 2.1362 0.0854063 2.41789 0.18157L2.67435 0.269105L8.39323 5.97443C13.8709 11.4391 14.1165 11.6889 14.2172 11.8964Z" fill="white"/>
<path fill-rule="evenodd" clip-rule="evenodd" d="M12.3971 0.253601C12.6664 0.122891 12.9463 0.0892867 13.262 0.149841C13.5822 0.211155 13.7831 0.331534 14.0252 0.607173C14.3545 0.982015 14.4491 1.4635 14.2869 1.93882L14.1993 2.19529L2.684 13.7106L2.42754 13.7982C2.14585 13.8943 1.82527 13.8956 1.517 13.8018C1.34883 13.7506 1.2709 13.6948 1.02829 13.4522C0.785673 13.2096 0.729919 13.1316 0.678722 12.9635C0.584898 12.6552 0.586144 12.3346 0.682308 12.0529L0.769843 11.7965L6.47516 6.0776C11.9399 0.599942 12.1896 0.354322 12.3971 0.253601Z" fill="white"/>
</svg>
