<svg width="17" height="16" viewBox="0 0 17 16" fill="none" xmlns="http://www.w3.org/2000/svg">
<path d="M13.2074 5.23599C13.1146 5.14306 13.0043 5.06935 12.8829 5.01905C12.7615 4.96876 12.6315 4.94287 12.5001 4.94287C12.3687 4.94287 12.2386 4.96876 12.1173 5.01905C11.9959 5.06935 11.8856 5.14306 11.7928 5.23599L8.73542 8.29266C8.67291 8.35515 8.58814 8.39025 8.49975 8.39025C8.41136 8.39025 8.32659 8.35515 8.26408 8.29266L5.20742 5.23599C5.01991 5.04839 4.76556 4.94297 4.50032 4.94291C4.23508 4.94284 3.98068 5.04815 3.79308 5.23566C3.60549 5.42317 3.50006 5.67752 3.5 5.94276C3.49994 6.20799 3.60524 6.46239 3.79275 6.64999L6.85008 9.70732C7.06676 9.92402 7.32399 10.0959 7.6071 10.2132C7.89021 10.3305 8.19365 10.3908 8.50008 10.3908C8.80652 10.3908 9.10996 10.3305 9.39307 10.2132C9.67618 10.0959 9.93341 9.92402 10.1501 9.70732L13.2074 6.64999C13.3949 6.46246 13.5002 6.20816 13.5002 5.94299C13.5002 5.67783 13.3949 5.42352 13.2074 5.23599Z" fill="#F35E46"/>
</svg>
