<svg width="22" height="22" viewBox="0 0 22 22" fill="none" xmlns="http://www.w3.org/2000/svg">
<path d="M20.625 9.625H1.375C0.615613 9.625 0 10.2406 0 11C0 11.7594 0.615613 12.375 1.375 12.375H20.625C21.3844 12.375 22 11.7594 22 11C22 10.2406 21.3844 9.625 20.625 9.625Z" fill="white"/>
<path d="M1.375 5.95838H20.625C21.3844 5.95838 22 5.34277 22 4.58338C22 3.82399 21.3844 3.20837 20.625 3.20837H1.375C0.615613 3.20837 0 3.82399 0 4.58338C0 5.34277 0.615613 5.95838 1.375 5.95838Z" fill="white"/>
<path d="M20.625 16.0417H1.375C0.615613 16.0417 0 16.6573 0 17.4167C0 18.1761 0.615613 18.7917 1.375 18.7917H20.625C21.3844 18.7917 22 18.1761 22 17.4167C22 16.6573 21.3844 16.0417 20.625 16.0417Z" fill="white"/>
</svg>
