<svg width="22" height="22" viewBox="0 0 22 22" fill="none" xmlns="http://www.w3.org/2000/svg">
<path fill-rule="evenodd" clip-rule="evenodd" d="M10.4413 0.0247761C9.45723 0.137311 8.89335 0.259042 8.26021 0.495542C6.57373 1.12551 5.16611 2.28218 4.2077 3.82562C3.30458 5.2799 2.88748 7.16541 3.09558 8.85275C3.4297 11.5619 5.36231 15.3029 8.56683 19.4434C9.32472 20.4227 10.299 21.5954 10.5223 21.7971C10.8175 22.0638 11.1823 22.0638 11.4775 21.7971C11.7008 21.5954 12.6751 20.4227 13.433 19.4434C16.3171 15.7168 18.1657 12.3312 18.7507 9.70452C18.9012 9.02853 18.9492 8.58768 18.9486 7.88595C18.9467 5.82139 18.1193 3.84947 16.6307 2.36172C15.4002 1.13187 13.95 0.386917 12.246 0.109167C11.8425 0.0433816 10.7325 -0.00852466 10.4413 0.0247761ZM11.5017 3.99878C13.1053 4.21629 14.4332 5.36785 14.868 6.91804C14.9827 7.32676 15.026 8.14849 14.9564 8.5936C14.7575 9.86526 13.9217 10.9837 12.7401 11.5594C12.0433 11.899 11.3327 12.0269 10.6024 11.9442C10.036 11.88 9.7486 11.7977 9.25966 11.5594C8.07806 10.9837 7.24232 9.86526 7.04342 8.5936C6.97377 8.14849 7.01712 7.32676 7.13176 6.91804C7.66909 5.00249 9.56482 3.73607 11.5017 3.99878Z" fill="#F35E46"/>
</svg>
