<svg width="154" height="33" viewBox="0 0 154 33" fill="none" xmlns="http://www.w3.org/2000/svg">
<path d="M12.4264 4.79616C12.0635 4.79616 11.7215 4.94915 11.4651 5.19093V10.8038C11.7641 11.067 12.1488 11.1981 12.6406 11.1981C13.9226 11.1981 14.4353 9.88265 14.4353 8.21659C14.4353 6.04558 13.8368 4.79616 12.4264 4.79616ZM7.55455 5.19093C7.29823 4.94915 6.95617 4.79616 6.59278 4.79616C5.1828 4.79616 4.58396 6.04558 4.58396 8.21659C4.58396 9.88265 5.09704 11.1981 6.37909 11.1981C6.87086 11.1981 7.25513 11.067 7.55455 10.8038V5.19093ZM12.5975 14.3335C12.2772 14.3335 11.8925 14.2461 11.4651 14.0926V16H9.43495C8.60157 16 7.7469 15.342 7.57587 14.1145C7.16984 14.2461 6.7851 14.3335 6.42218 14.3335C2.36189 14.3335 0.673828 11.7905 0.673828 7.84368C0.673828 4.11635 2.91766 1.61659 6.12325 1.61659C6.61411 1.61659 7.10588 1.70447 7.55455 1.85792V0.169556H9.66996C10.4181 0.169556 11.3367 0.805196 11.4438 1.88023C11.9138 1.70447 12.4051 1.61659 12.8969 1.61659C16.1025 1.61659 18.3458 4.11635 18.3458 7.84368C18.3458 11.7905 16.6578 14.3335 12.5975 14.3335Z" fill="#EA5957"/>
<path d="M32.6321 15.6489C31.5211 15.6489 30.3244 14.8379 30.3244 13.3035V6.33057C30.3244 6.33057 30.068 6.94481 29.598 7.79992L27.0979 12.4479C25.7728 14.9035 24.512 15.6489 22.8453 15.6489H21.0293V0.520569H23.0808C24.1491 0.520569 25.0891 1.33151 25.0891 2.47165V9.11537L26.0296 7.27356L27.8242 3.63411C28.8287 1.59469 30.1538 0.520569 32.3123 0.520569H34.3847V15.6489H32.6321Z" fill="#EA5957"/>
<path d="M47.051 4.07259H44.9573V15.6489H43.1835C41.9654 15.6489 40.897 15.0788 40.897 13.4783V4.07259H36.6875V2.53767C36.6875 1.61654 37.4778 0.520569 38.974 0.520569H49.3166V2.05503C49.3166 2.99801 48.2908 4.07259 47.051 4.07259Z" fill="#EA5957"/>
<path d="M57.7171 3.54628C55.7088 3.54628 54.6404 5.32206 54.6404 7.86553C54.6404 11.067 55.8367 12.6019 58.0592 12.6019C59.897 12.6019 61.1364 11.0228 61.1364 8.23845C61.1364 4.92775 59.9823 3.54628 57.7171 3.54628ZM57.6744 16C53.6573 16 50.5801 13.018 50.5801 8.28216C50.5801 3.39283 53.3792 0.169556 58.1231 0.169556C61.7348 0.169556 65.1962 2.93249 65.1962 7.86553C65.1962 12.8864 62.4606 16 57.6744 16Z" fill="#EA5957"/>
<path d="M84.7756 15.6489C83.3651 15.6489 82.3389 14.8598 82.3389 13.2812C82.3389 11.9216 82.211 8.04079 81.976 5.80466L79.9459 12.1629C79.6469 13.0836 79.0268 14.7064 78.4715 15.6489H77.3391C75.95 15.6489 74.8603 14.5748 73.9412 11.5054L73.1936 8.98378C72.8302 7.7339 72.381 6.39659 72.1465 5.7605C71.8897 8.34768 71.6974 13.1496 71.6974 15.6489H70.1803C68.9405 15.6489 67.8086 14.7719 67.8086 13.2812C67.8086 8.94007 68.3852 3.69968 69.0902 0.520569H70.5006C72.851 0.520569 74.0478 1.66072 74.5822 2.99802L75.7364 5.93625C76.2277 7.20753 76.8474 8.94006 77.1677 10.2113C77.4889 9.09351 77.9371 7.75575 78.3862 6.65977L79.7962 3.19517C80.3306 1.90204 81.036 0.980907 81.57 0.520569H82.3176C84.4548 0.520569 85.4806 1.72628 85.7582 3.89684C86.1429 6.85693 86.5063 11.5054 86.5063 15.6489H84.7756Z" fill="#EA5957"/>
<path d="M101.432 15.6489C100.32 15.6489 99.1237 14.8379 99.1237 13.3035V6.33057C99.1237 6.33057 98.8674 6.94481 98.3969 7.79992L95.8972 12.4479C94.5721 14.9035 93.3113 15.6489 91.6446 15.6489H89.8281V0.520569H91.8796C92.948 0.520569 93.8884 1.33151 93.8884 2.47165V9.11537L94.8284 7.27356L96.6235 3.63411C97.6279 1.59469 98.9526 0.520569 101.111 0.520569H103.184V15.6489H101.432Z" fill="#EA5957"/>
<path d="M117.09 15.6489C115.701 15.6489 114.889 14.6185 114.718 13.7197C114.355 11.7681 113.372 8.67688 112.239 6.19944C111.042 8.69874 109.824 12.6018 109.354 15.6489H107.303C106.298 15.6489 105.486 14.9914 105.486 13.9168C105.486 13.3472 105.85 12.2289 106.384 10.5624C107.345 7.58045 109.717 2.47166 111.192 0.520569H112.154C113.136 0.520569 113.671 0.893028 114.291 1.85787C116.641 5.56334 118.607 10.5843 119.355 15.6489H117.09Z" fill="#EA5957"/>
<path d="M132.732 15.6489C131.343 15.6489 130.531 14.6185 130.36 13.7197C129.997 11.7681 129.014 8.67688 127.881 6.19944C126.684 8.69874 125.466 12.6018 124.996 15.6489H122.945C121.94 15.6489 121.129 14.9914 121.129 13.9168C121.129 13.3472 121.492 12.2289 122.026 10.5624C122.988 7.58045 125.36 2.47166 126.834 0.520569H127.796C128.779 0.520569 129.313 0.893028 129.933 1.85787C132.283 5.56334 134.249 10.5843 134.997 15.6489H132.732Z" fill="#EA5957"/>
<path d="M151.871 15.6489C150.76 15.6489 149.564 14.8379 149.564 13.3035V0.520569H151.551C152.512 0.520569 153.623 1.24363 153.623 2.47165V15.6489H151.871ZM142.662 8.83033C142.084 8.83033 141.571 8.87404 141.123 9.02749V12.4042C141.315 12.4479 141.743 12.5139 141.935 12.5139H142.747C143.794 12.5139 144.478 12.1192 144.478 10.5405C144.478 9.44411 143.943 8.83033 142.662 8.83033ZM143.11 15.8684H141.828C138.858 15.8684 137.062 14.5311 137.062 11.9434V0.520569H139.157C140.225 0.520569 141.123 1.33151 141.123 2.47165V5.7605C141.657 5.5852 142.32 5.54149 143.046 5.54149C146.102 5.54149 148.537 7.66833 148.537 10.9572C148.537 14.1144 146.166 15.8684 143.11 15.8684Z" fill="#EA5957"/>
<path d="M7.22403 25.4304C7.05253 25.4304 6.89121 25.4818 6.74984 25.5752V28.8549C6.89121 28.9373 7.06227 28.9792 7.26436 28.9792C7.99021 28.9792 8.5552 28.3581 8.5552 27.2098C8.5552 26.1338 8.11118 25.4304 7.22403 25.4304ZM5.39876 25.5752C5.25739 25.4818 5.08634 25.4304 4.91484 25.4304C4.02769 25.4304 3.59386 26.1338 3.59386 27.2098C3.59386 28.3581 4.14819 28.9792 4.88469 28.9792C5.08632 28.9792 5.25739 28.9373 5.39876 28.8549V25.5752ZM7.42564 30.1271C7.21381 30.1271 6.94173 30.0861 6.74984 30.0137V30.9968H6.23583C5.66108 30.9968 5.40894 30.4895 5.40894 30.0242C5.21705 30.0861 4.93524 30.1271 4.72342 30.1271C3.24067 30.1271 2.16211 29.0307 2.16211 27.2098C2.16211 25.5542 3.1401 24.2711 4.71323 24.2711C4.92506 24.2711 5.20733 24.313 5.39876 24.3854V23.6609H5.99339C6.40684 23.6609 6.74011 23.982 6.74011 24.3854C6.93154 24.313 7.224 24.2711 7.43582 24.2711C9.00849 24.2711 9.97676 25.5542 9.97676 27.2098C9.97676 29.0307 8.90792 30.1271 7.42564 30.1271Z" fill="#EA5957"/>
<path d="M16.6934 24.8716C16.3305 26.1752 15.4831 27.7479 15.0901 28.441C13.7691 30.7376 13.4164 30.9553 12.4884 30.9553C12.0551 30.9553 11.5508 30.6133 11.5508 30.0342V29.7855L12.2164 29.7546C12.7104 29.7341 13.0331 29.2892 13.2954 28.9168C12.3976 27.6132 11.2685 25.4403 10.875 23.7852H11.6416C12.1255 23.7852 12.418 24.0958 12.5288 24.4782C12.8008 25.4508 13.4563 26.7749 14.0111 27.7065C14.5756 26.6715 15.2917 25.0264 15.5438 23.7852H16.2095C16.5826 23.7852 16.8041 23.951 16.8041 24.3129C16.8041 24.4887 16.7434 24.7063 16.6934 24.8716Z" fill="#EA5957"/>
<path d="M23.0961 30.872C22.6924 30.872 22.2892 30.5409 22.2892 29.9203V27.8308H19.4961V30.872H18.9719C18.5079 30.872 18.1348 30.5409 18.1348 29.9203V23.7852H18.8101C19.2036 23.7852 19.4961 24.1263 19.4961 24.5301V26.6406H22.2892V23.7852H22.9144C23.2671 23.7852 23.6505 24.0748 23.6505 24.5301V30.872H23.0961Z" fill="#EA5957"/>
<path d="M30.0147 30.9034C29.6814 30.9034 29.2883 30.7272 29.0469 30.4481C28.1996 29.4445 27.5136 28.42 26.8281 27.2922V30.872H26.3743C25.7087 30.872 25.4668 30.3961 25.4668 29.9103V23.7852H25.9108C26.5759 23.7852 26.8281 24.2405 26.8281 24.7369V26.9507C27.4431 26.0195 28.0582 25.0474 28.8147 24.2196C29.1776 23.8162 29.3287 23.7852 29.8631 23.7852H30.811V23.8371C30.2766 24.3958 28.9051 26.0819 28.2093 27.0959C28.855 28.058 29.4803 29.134 30.3572 29.8994C30.5588 30.0651 30.7002 30.138 30.9018 30.1894C30.7809 30.6962 30.569 30.9034 30.0147 30.9034Z" fill="#EA5957"/>
<path d="M38.2037 32.6209C37.5682 32.6209 37.286 32.2584 37.286 31.7412V30.872H34.765C33.0004 30.872 32.1133 29.8894 32.1133 27.9442V23.7852H32.7784C33.1218 23.7852 33.4741 24.0543 33.4741 24.4682V28.12C33.4741 29.2478 33.8574 29.6307 35.0371 29.6307H36.1666V23.7852H36.8118C37.1446 23.7852 37.5279 24.0748 37.5279 24.4887V29.6307C38.1128 29.6307 38.5768 29.7236 38.5768 30.479V32.6209H38.2037Z" fill="#EA5957"/>
<path d="M45.0592 30.872C44.6559 30.872 44.2527 30.5409 44.2527 29.9203V25.5442C44.1113 25.6885 43.9301 25.999 43.6774 26.5063L42.3467 29.1759C41.6709 30.5309 41.0962 30.872 40.4005 30.872H39.8359V23.7852H40.5113C40.9048 23.7852 41.1968 24.1263 41.1968 24.5301V28.8753C41.3688 28.6686 41.6812 27.9756 41.8225 27.6856L43.0022 25.2232C43.4355 24.323 44.0205 23.7852 44.9178 23.7852H45.614V30.872H45.0592Z" fill="#EA5957"/>
<path d="M50.3737 24.9131C49.3554 24.9131 48.6193 25.7719 48.6193 27.2198C48.6193 28.9273 49.2242 29.7651 50.4844 29.7651C51.5533 29.7651 52.2388 28.9792 52.2388 27.417C52.2388 25.7509 51.5431 24.9131 50.3737 24.9131ZM50.3537 30.9968C48.6091 30.9968 47.1973 29.5584 47.1973 27.4375C47.1973 25.2337 48.407 23.6609 50.5048 23.6609C52.1786 23.6609 53.6608 24.975 53.6608 27.2198C53.6608 29.3721 52.4608 30.9968 50.3537 30.9968Z" fill="#EA5957"/>
<path d="M60.207 30.872C59.8037 30.872 59.4005 30.5409 59.4005 29.9203V27.8308H56.6074V30.872H56.0827C55.6187 30.872 55.2461 30.5409 55.2461 29.9203V23.7852H55.9219C56.3149 23.7852 56.6074 24.1263 56.6074 24.5301V26.6406H59.4005V23.7852H60.0252C60.3784 23.7852 60.7618 24.0748 60.7618 24.5301V30.872H60.207Z" fill="#EA5957"/>
<path d="M65.0269 25.0888C64.6237 25.8233 64.1898 26.9507 63.9581 27.9337H66.0962C65.864 26.9406 65.3898 25.7509 65.0269 25.0888ZM67.528 30.872C66.9528 30.872 66.6505 30.5309 66.6 30.1894C66.5393 29.7236 66.4791 29.3616 66.4086 29.0616H63.6559C63.5145 29.6617 63.3935 30.2718 63.2924 30.872H62.7581C62.3043 30.872 62.123 30.6238 62.123 30.1894C62.123 29.1654 63.4135 24.9955 64.4726 23.7852H65.0371C65.5919 23.7852 65.9645 24.0958 66.1564 24.4373C66.7817 25.5856 67.82 28.6377 68.0925 30.872H67.528Z" fill="#EA5957"/>
<path d="M74.0713 30.872C73.5573 30.872 73.2648 30.5204 73.1943 30.0961C72.9723 28.7925 72.5992 27.0335 71.7825 25.2541C71.0469 26.8887 70.4115 29.0825 70.1491 30.872H69.4228C69.09 30.872 68.8281 30.6552 68.8281 30.2618C68.8281 29.8689 69.2513 28.2443 69.6652 27.1059C70.0583 26.0304 70.5222 24.8507 71.2282 23.7852H71.5104C71.9438 23.7852 72.4884 23.94 72.7206 24.3544C73.7487 26.2062 74.4954 28.6167 74.8078 30.872H74.0713Z" fill="#EA5957"/>
<path d="M78.5102 27.4579C78.0968 27.4579 77.7538 27.5098 77.4516 27.6551V29.1654C77.4516 29.4964 77.7033 29.7136 78.0764 29.7136H78.52C79.2662 29.7136 79.6695 29.3926 79.6695 28.5443C79.6695 27.8513 79.2963 27.4579 78.5102 27.4579ZM78.6512 30.9444H78.0764C76.7452 30.9444 76.0898 30.3242 76.0898 29.2478V23.7852H76.7957C77.1387 23.7852 77.4516 24.0543 77.4516 24.4682V26.5268C77.7135 26.3924 78.1571 26.2577 78.6512 26.2577C80.0227 26.2577 81.1017 27.1269 81.1017 28.6481C81.1017 30.0756 80.0528 30.9444 78.6512 30.9444Z" fill="#EA5957"/>
<path d="M87.4746 30.872C87.0713 30.872 86.6681 30.5409 86.6681 29.9203V27.8308H83.875V30.872H83.3503C82.8863 30.872 82.5137 30.5409 82.5137 29.9203V23.7852H83.189C83.5825 23.7852 83.875 24.1263 83.875 24.5301V26.6406H86.6681V23.7852H87.2929C87.6461 23.7852 88.0289 24.0748 88.0289 24.5301V30.872H87.4746Z" fill="#EA5957"/>
<path d="M92.7892 24.9131C91.7713 24.9131 91.0348 25.7719 91.0348 27.2198C91.0348 28.9273 91.6402 29.7651 92.9004 29.7651C93.9697 29.7651 94.6553 28.9792 94.6553 27.417C94.6553 25.7509 93.9595 24.9131 92.7892 24.9131ZM92.7693 30.9968C91.0246 30.9968 89.6133 29.5584 89.6133 27.4375C89.6133 25.2337 90.8235 23.6609 92.9209 23.6609C94.5946 23.6609 96.0768 24.975 96.0768 27.2198C96.0768 29.3721 94.8768 30.9968 92.7693 30.9968Z" fill="#EA5957"/>
<path d="M102.419 30.0446C102.409 30.6133 102.127 30.9239 100.916 30.9239H100.18C98.4965 30.9239 97.6094 29.9722 97.6094 28.1618V26.8478C97.6094 26.1752 97.6599 25.4194 97.7401 24.8507C97.8513 24.0024 98.2342 23.7852 98.7992 23.7852H102.409V24.261C102.409 24.7578 102.117 25.006 101.481 25.006H99.1116C99.0411 25.5232 99.0105 26.2162 99.0105 26.6615H101.673V27.1683C101.673 27.6337 101.391 27.8203 100.836 27.8203H99.0105V28.2342C99.0105 29.465 99.404 29.7031 100.473 29.7031H100.916C101.421 29.7031 101.935 29.6617 102.429 29.5479L102.419 30.0446Z" fill="#EA5957"/>
<path d="M111.464 30.872C111.06 30.872 110.657 30.541 110.657 29.9204V26.4234C110.657 25.1922 110.264 24.9541 109.195 24.9541H108.923C108.651 24.9541 108.156 24.9955 107.915 25.0474V30.872H107.36C106.956 30.872 106.553 30.541 106.553 29.9204V24.0334C106.997 23.8781 108.096 23.7333 108.741 23.7333H109.447C111.131 23.7333 112.019 24.5821 112.019 26.3925V30.872H111.464Z" fill="#EA5957"/>
<path d="M119.057 30.872C118.654 30.872 118.25 30.5409 118.25 29.9203V25.5442C118.11 25.6885 117.928 25.999 117.676 26.5063L116.345 29.1759C115.669 30.5309 115.094 30.872 114.399 30.872H113.834V23.7852H114.51C114.903 23.7852 115.195 24.1263 115.195 24.5301V28.8753C115.367 28.6686 115.68 27.9756 115.821 27.6856L117 25.2232C117.434 24.323 118.019 23.7852 118.916 23.7852H119.612V30.872H119.057Z" fill="#EA5957"/>
<path d="M125.471 25.0264H124.2V30.872H123.646C123.162 30.872 122.809 30.5514 122.809 29.9203V25.0264H120.822V24.5611C120.822 24.2196 121.095 23.7852 121.659 23.7852H126.298V24.2301C126.298 24.5716 125.924 25.0264 125.471 25.0264Z" fill="#EA5957"/>
<path d="M129.978 25.0888C129.575 25.8233 129.141 26.9507 128.91 27.9337H131.047C130.815 26.9406 130.341 25.7509 129.978 25.0888ZM132.479 30.872C131.904 30.872 131.602 30.5309 131.551 30.1894C131.491 29.7236 131.43 29.3616 131.36 29.0616H128.607C128.466 29.6617 128.345 30.2718 128.244 30.872H127.709C127.255 30.872 127.074 30.6238 127.074 30.1894C127.074 29.1654 128.365 24.9955 129.424 23.7852H129.988C130.543 23.7852 130.916 24.0958 131.108 24.4373C131.733 25.5856 132.772 28.6377 133.044 30.872H132.479Z" fill="#EA5957"/>
<path d="M139.266 30.872C138.862 30.872 138.459 30.5409 138.459 29.9203V27.8308H135.666V30.872H135.141C134.677 30.872 134.305 30.5409 134.305 29.9203V23.7852H134.98C135.374 23.7852 135.666 24.1263 135.666 24.5301V26.6406H138.459V23.7852H139.084C139.437 23.7852 139.82 24.0748 139.82 24.5301V30.872H139.266Z" fill="#EA5957"/>
<path d="M146.86 30.872C146.457 30.872 146.053 30.5409 146.053 29.9203V25.5442C145.913 25.6885 145.731 25.999 145.479 26.5063L144.148 29.1759C143.472 30.5309 142.897 30.872 142.202 30.872H141.637V23.7852H142.313C142.706 23.7852 142.998 24.1263 142.998 24.5301V28.8753C143.17 28.6686 143.482 27.9756 143.623 27.6856L144.803 25.2232C145.237 24.323 145.822 23.7852 146.719 23.7852H147.415V30.872H146.86Z" fill="#EA5957"/>
<path d="M153.989 30.0446C153.979 30.6133 153.697 30.9239 152.486 30.9239H151.751C150.066 30.9239 149.18 29.9722 149.18 28.1618V26.8478C149.18 26.1752 149.23 25.4194 149.31 24.8507C149.422 24.0024 149.804 23.7852 150.369 23.7852H153.979V24.261C153.979 24.7578 153.687 25.006 153.051 25.006H150.682C150.611 25.5232 150.581 26.2162 150.581 26.6615H153.243V27.1683C153.243 27.6337 152.96 27.8203 152.406 27.8203H150.581V28.2342C150.581 29.465 150.974 29.7031 152.043 29.7031H152.486C152.991 29.7031 153.506 29.6617 153.999 29.5479L153.989 30.0446Z" fill="#EA5957"/>
</svg>
