<svg width="24" height="24" viewBox="0 0 24 24" fill="none" xmlns="http://www.w3.org/2000/svg">
<path d="M10.9567 12.354C10.9101 12.3076 10.8732 12.2524 10.848 12.1916C10.8228 12.1309 10.8098 12.0658 10.8098 12C10.8098 11.9342 10.8228 11.8691 10.848 11.8084C10.8732 11.7476 10.9101 11.6925 10.9567 11.646L15.5427 7.061C15.8241 6.77974 15.9822 6.39822 15.9823 6.00036C15.9824 5.6025 15.8244 5.2209 15.5432 4.9395C15.2619 4.65811 14.8804 4.49997 14.4825 4.49988C14.0847 4.49978 13.7031 4.65774 13.4217 4.939L8.83568 9.525C8.18045 10.182 7.8125 11.0721 7.8125 12C7.8125 12.9279 8.18045 13.818 8.83568 14.475L13.4217 19.061C13.7031 19.3423 14.0847 19.5002 14.4825 19.5001C14.8804 19.5 15.2619 19.3419 15.5432 19.0605C15.8244 18.7791 15.9824 18.3975 15.9823 17.9997C15.9822 17.6018 15.8241 17.2203 15.5427 16.939L10.9567 12.354Z" fill="white"/>
</svg>
