<svg width="14" height="14" viewBox="0 0 14 14" fill="none" xmlns="http://www.w3.org/2000/svg">
<path d="M10.5303 7.81055C9.03063 7.81055 7.81058 9.03057 7.81058 10.5302C7.81058 12.0299 9.03063 13.2499 10.5303 13.25C12.0299 13.2499 13.25 12.0299 13.25 10.5302C13.25 9.03057 12.0299 7.81055 10.5303 7.81055ZM10.5303 11.3147C10.0969 11.3147 9.7457 10.9635 9.7457 10.5302C9.7457 10.097 10.097 9.74573 10.5303 9.74573C10.9637 9.74573 11.3149 10.097 11.3149 10.5302C11.3148 10.9635 10.9635 11.3147 10.5303 11.3147ZM3.4697 6.18945C4.96937 6.18938 6.18942 4.96934 6.18942 3.46968C6.18942 2.74329 5.90656 2.06025 5.39281 1.54658C4.87913 1.03289 4.19612 0.75 3.4697 0.75C2.74328 0.75 2.06019 1.03286 1.54652 1.54661C1.03284 2.06025 0.75 2.74329 0.75 3.4697C0.75 4.96934 1.97005 6.18936 3.4697 6.18945ZM3.4697 2.68521C3.90298 2.68521 4.2542 3.03643 4.2542 3.46968C4.2542 3.90295 3.90298 4.25427 3.4697 4.25427C3.03644 4.25427 2.68522 3.90295 2.68522 3.46968C2.68522 3.03643 3.03644 2.68521 3.4697 2.68521ZM13.25 1.90071C13.25 1.59333 13.1303 1.30437 12.913 1.08704C12.6957 0.869678 12.4067 0.75 12.0993 0.75C11.792 0.75 11.503 0.86958 11.2855 1.08704L1.08694 11.2855C0.638329 11.7341 0.638329 12.4642 1.08694 12.9129C1.30428 13.1302 1.59324 13.25 1.90072 13.25C2.20809 13.25 2.49706 13.1303 2.7144 12.9129L12.913 2.71438C13.1303 2.49705 13.25 2.20808 13.25 1.90071Z" fill="white"/>
</svg>
