<svg width="20" height="8" viewBox="0 0 20 8" fill="none" xmlns="http://www.w3.org/2000/svg">
<path d="M5.39461 7.04453H4.73673C4.37416 7.04453 4.04961 6.94617 3.76307 6.74946C3.48237 6.55275 3.21045 6.21596 2.9473 5.73909L1.92101 3.84353L1.62277 3.24446V7.04453H0.938574C0.692966 7.04453 0.473673 6.96108 0.280695 6.79417C0.093565 6.6213 0 6.38883 0 6.09675V0.875H0.806998C1.64324 0.875 2.27188 1.29822 2.69292 2.14467L3.42974 3.62893L3.8157 4.38001V0.875H4.55252C4.76889 0.875 4.96187 0.949511 5.13146 1.09853C5.30689 1.2416 5.39461 1.43234 5.39461 1.67078V7.04453Z" fill="white"/>
<path d="M10.8735 6.22192C10.8735 6.51997 10.7653 6.74648 10.549 6.90147C10.3384 7.05049 9.97587 7.125 9.46126 7.125H8.77707C7.97591 7.125 7.36482 6.91637 6.94378 6.49911C6.52273 6.07588 6.31221 5.44105 6.31221 4.5946V3.5574C6.31221 2.92555 6.3473 2.37119 6.41747 1.89431C6.51689 1.21477 6.90576 0.875 7.58411 0.875H10.8823V1.27736C10.8823 1.58733 10.7975 1.82874 10.6279 2.00161C10.4642 2.17448 10.2127 2.26091 9.87353 2.26091H8.03147C7.99053 2.6126 7.97007 2.96131 7.97007 3.30705H10.3121V3.924C10.3121 4.15051 10.2332 4.32338 10.0753 4.4426C9.91739 4.56181 9.69225 4.62142 9.39986 4.62142H7.97007V4.84496C7.97007 5.18473 8.04024 5.42018 8.18059 5.55132C8.32678 5.6765 8.60748 5.73909 9.02267 5.73909H9.46126C9.95832 5.73909 10.4291 5.68246 10.8735 5.56921V6.22192Z" fill="white"/>
<path d="M19.9737 1.9122C19.8041 2.68711 19.5205 3.58125 19.1228 4.5946C18.7252 5.60795 18.3158 6.44844 17.8948 7.11606H17.4387C17.1229 7.11606 16.8743 6.96108 16.6931 6.65111C16.2779 5.95965 15.9358 5.08041 15.6668 4.01341C15.5498 4.50221 15.3656 5.05061 15.1142 5.65862C14.8627 6.26067 14.6142 6.74648 14.3686 7.11606H13.9124C13.5849 7.11606 13.3306 6.96108 13.1493 6.65111C12.1669 4.98206 11.5294 3.05669 11.2371 0.875H12.2019C12.4534 0.875 12.6639 0.946531 12.8335 1.08959C13.0031 1.22669 13.1113 1.42936 13.1581 1.6976C13.3101 2.62154 13.5703 3.54846 13.9387 4.47836C14.4007 3.33983 14.7311 2.21024 14.9299 1.08959H15.5089C16.158 1.08959 16.5498 1.4085 16.6843 2.04632C16.848 2.80931 17.1083 3.61999 17.465 4.47836C17.927 3.2981 18.2427 2.09698 18.4123 0.875H19.2544C19.4708 0.875 19.6491 0.946531 19.7895 1.08959C19.9298 1.22669 20 1.4085 20 1.63501C20 1.72443 19.9912 1.81682 19.9737 1.9122Z" fill="white"/>
</svg>
