<svg width="22" height="22" viewBox="0 0 22 22" fill="none" xmlns="http://www.w3.org/2000/svg">
<path fill-rule="evenodd" clip-rule="evenodd" d="M18.2172 15.8964C18.3479 16.1656 18.3815 16.4455 18.321 16.7613C18.2597 17.0815 18.1393 17.2823 17.8637 17.5245C17.4888 17.8537 17.0073 17.9484 16.532 17.7861L16.2755 17.6986L4.76019 6.18327L4.67266 5.9268C4.5765 5.64511 4.57525 5.32454 4.66907 5.01627C4.72027 4.84809 4.77602 4.77016 5.01864 4.52755C5.26125 4.28494 5.33918 4.22918 5.50735 4.17798C5.81563 4.08416 6.1362 4.08541 6.41789 4.18157L6.67435 4.26911L12.3932 9.97443C17.8709 15.4391 18.1165 15.6889 18.2172 15.8964Z" fill="white"/>
<path fill-rule="evenodd" clip-rule="evenodd" d="M16.3971 4.2536C16.6664 4.12289 16.9463 4.08929 17.262 4.14984C17.5822 4.21115 17.7831 4.33153 18.0252 4.60717C18.3545 4.98201 18.4491 5.4635 18.2869 5.93882L18.1993 6.19529L6.684 17.7106L6.42754 17.7982C6.14585 17.8943 5.82527 17.8956 5.517 17.8018C5.34883 17.7506 5.2709 17.6948 5.02829 17.4522C4.78567 17.2096 4.72992 17.1316 4.67872 16.9635C4.5849 16.6552 4.58614 16.3346 4.68231 16.0529L4.76984 15.7965L10.4752 10.0776C15.9399 4.59994 16.1896 4.35432 16.3971 4.2536Z" fill="white"/>
</svg>
