<svg width="16" height="16" viewBox="0 0 16 16" fill="none" xmlns="http://www.w3.org/2000/svg">
<path fill-rule="evenodd" clip-rule="evenodd" d="M7.5935 0.0179802C6.87781 0.0998239 6.46771 0.188355 6.00725 0.360355C4.78071 0.818511 3.757 1.65973 3.05996 2.78223C2.40315 3.83989 2.09981 5.21117 2.25115 6.43832C2.49415 8.40864 3.89968 11.1293 6.23025 14.1406C6.78143 14.8529 7.49 15.7057 7.6524 15.8524C7.86712 16.0464 8.13237 16.0464 8.34709 15.8524C8.5095 15.7057 9.21806 14.8529 9.76925 14.1406C11.8668 11.4304 13.2113 8.96811 13.6367 7.05779C13.7462 6.56617 13.7811 6.24554 13.7806 5.7352C13.7792 4.2337 13.1775 2.79957 12.0949 1.71757C11.1999 0.823137 10.1453 0.281355 8.906 0.0793552C8.61253 0.0315114 7.80525 -0.00623859 7.5935 0.0179802ZM8.36468 2.90817C9.53093 3.06635 10.4967 3.90386 10.8129 5.03126C10.8963 5.32851 10.9278 5.92614 10.8772 6.24986C10.7325 7.1747 10.1247 7.98807 9.26537 8.40682C8.75856 8.65376 8.24181 8.74679 7.71068 8.68664C7.29875 8.63998 7.08971 8.58011 6.73412 8.40682C5.87478 7.98807 5.26696 7.1747 5.12231 6.24986C5.07165 5.92614 5.10318 5.32851 5.18656 5.03126C5.57734 3.63814 6.95606 2.71711 8.36468 2.90817Z" fill="#F35E46"/>
</svg>
